<?xml version="1.0" encoding="utf-8"?>
<!-- Generator: Adobe Illustrator 16.0.0, SVG Export Plug-In . SVG Version: 6.00 Build 0)  -->
<!DOCTYPE svg PUBLIC "-//W3C//DTD SVG 1.1//EN" "http://www.w3.org/Graphics/SVG/1.1/DTD/svg11.dtd">
<svg version="1.1" id="Layer_1" xmlns="http://www.w3.org/2000/svg" xmlns:xlink="http://www.w3.org/1999/xlink" x="0px" y="0px"
	 width="696.152px" height="547.294px" viewBox="0 0 696.152 547.294" enable-background="new 0 0 696.152 547.294"
	 xml:space="preserve">
<g id="XMLID_202_">
	<path id="XMLID_224_" fill="#F7C62E" d="M115.799,103.672l14.104-21.87c0,0,15.748-6.317,29.999-6.389
		c14.251-0.071-19.392,16.167-19.392,16.167L115.799,103.672z"/>
	<path id="XMLID_222_" fill="#194A86" d="M68.297,327.243c3.352-3.876,6.703-7.753,10.055-11.63c1.917-2.505,3.701-5.123,5.773-7.5
		c18.775-21.533,38.733-42.184,56.135-64.73c23.537-30.497,31.966-66.101,29.189-103.985c-1.123-15.323-7.803-28.793-23.352-34.86
		c-15.018-5.861-26.664,1.936-36.927,11.864c-35.829,34.661-62.38,74.977-77.102,122.402c-3.004,9.678-6.207,18.623-8.967,28.374
		c0.663,0.296-6.192,14.27-5.53,14.565c4.984-4.164,34.766-40.775,39.75-44.938c-18.152,21.161-46.49,72.11-44.477,96.823
		c2.673-2.453,22.77-28.643,25.351-31.011c-2.788,7.641-24.193,38.171-26.669,45.349C9.074,355.076,2.09,374.037,0,383.363
		c3.005-3.096,10.453-16.139,12.087-17.658c1.491-1.386,18.31-21.466,19.887-22.764C21.003,360.745,1.299,398.759,0,418.956
		c1.043-0.656,1.68-1.498,2.19-2.408c14.771-26.366,32.155-50.999,51.625-74.212C58.279,337.012,63.451,332.258,68.297,327.243z"/>
	<path id="XMLID_220_" fill="#F7C62E" d="M136.132,81.167c-0.605,0.363-1.205,0.612-1.794,0.781
		c-5.142,5.813-10.384,11.547-15.507,17.376c-1.162,1.322-2.028,2.893-3.031,4.348c2.65-0.53,4.348-1.676,6.107-2.727
		c14.852-8.868,29.953-6.898,40.455,6.691c5.003,6.475,8.898,14.359,11.124,22.197c6.42,22.605,4.008,45.214-3.23,67.278
		c-11.029,33.624-32.433,60.861-56.624,86.235c-6.347,6.658-13.206,12.848-19.83,19.252c6.065,0.156,11.462-0.705,16.764-1.954
		c45.438-10.706,80.667-33.791,98.357-78.093c8.202-20.542,15.854-42.686,12.829-63.798c-2.594-14.347-4.157-27.554-11.057-40.81
		C197.117,91.858,167.423,62.425,136.132,81.167z"/>
	<path id="XMLID_219_" fill="#E5E5E5" d="M171.003,281.464c-9.188-0.265-13.993,7.476-21.367,10.435
		c0.395-0.063,0.805-0.105,1.243-0.106c0.227,0,0.451-0.021,0.678-0.027c0.297-0.15,0.605-0.29,0.941-0.408
		c0.146-0.052,0.292-0.099,0.439-0.15c5.415-0.837,17.683-1.655,38.175,2.593C189.618,286.436,182.262,281.789,171.003,281.464z"/>
	<path id="XMLID_217_" fill="#122784" d="M93.764,547.294c-22.356-35.297-28.358-74.784-32.726-114.798
		c-5.192,25.953-7.274,52.094-7.088,78.487c-8.581-26.414-11.677-53.432-9.503-81.213c-9.98,11.172-14.817,24.935-20.436,38.521
		c-2.608-12.835,6.054-54.737,17.02-82.695c10.458-26.664,23.861-51.493,46.15-71.005c-3.031,11.301-6.459,22.118-8.792,33.156
		c-6.119,28.958-6.58,58.293-4.643,87.675c2.476,37.542,9.14,74.388,20.005,110.488C93.857,546.264,93.764,546.674,93.764,547.294z"
		/>
	<path id="XMLID_216_" fill="#FFFFFF" d="M129.903,77.693"/>
	<path id="XMLID_215_" fill="#FFFFFF" d="M136.554,52.97"/>
	<path id="XMLID_214_" fill="#FFFFFF" d="M216.092,117.345"/>
	<g id="XMLID_204_">
		<path id="XMLID_212_" fill="#E32833" d="M133.143,69.847c0.799-1.901,1.612-3.766,2.448-5.578
			c-1.974,3.357-2.839,6.199-2.839,6.199C132.839,70.252,132.974,70.046,133.143,69.847z"/>
		<path id="XMLID_209_" fill="#FFFFFF" d="M235.115,50.835c3.917-2.474,8.47-4.569,13.507-6.298
			c5.059-4.375,6.421-8.489,5.399-11.981c-1.42-4.298-6.171-7.955-12.072-10.091c-6.154-2.261-13.458-2.619-19.472-0.324
			c-6.911,2.551-12.145,8.768-12.111,20.286c0.021,6.958,1.717,17.206,4.051,26.565c0.708,3.147,1.477,6.174,2.249,8.922
			c0.552-4.998,2.271-9.707,5.166-14.131C224.892,58.839,229.491,54.522,235.115,50.835z M232.879,30.972
			c1.922-0.005,3.464,1.38,3.47,3.28c0.005,1.898-1.528,3.422-3.45,3.428c-1.792,0.005-3.334-1.51-3.34-3.409
			C229.554,32.372,231.087,30.978,232.879,30.972z"/>
		<path id="XMLID_208_" fill="#E5E5E5" d="M252.791,80.15c0.037-1.021,0.034-2.036-0.045-3.041
			c-0.663-6.706-3.756-13.15-9.151-18.452c-1.061-1.041-2.254-2.016-3.473-2.978c-0.415,0.244-0.874,0.463-1.274,0.715
			c-4.987,3.177-8.692,6.856-11.37,11.042c-2.361,3.64-3.794,7.722-4.193,12.024c1.853,5.964,5.499,9.519,9.642,10.996
			c2.437,1.005,5,1.25,7.56,0.864c2.564-0.261,4.995-1.026,6.912-2.425c3.07-1.907,5.24-4.95,5.356-8.746L252.791,80.15z"/>
		<path id="XMLID_207_" fill="#E5E5E5" d="M285.328,48.921c-0.098-0.986-0.212-1.782-0.325-2.482
			c-15.484-0.566-28.369,1.745-38.345,5.971c0.568,0.509,1.124,1.023,1.663,1.552c6.553,6.437,10.417,14.273,11.083,22.498
			c0.124,1.301,0.141,2.61,0.108,3.922l0.031,0.001c-0.008,0.2-0.046,0.388-0.061,0.585c-0.296,6.842-2.724,13.779-7.544,20.48
			c1.368-0.325,2.699-0.671,3.951-1.06c14.974-4.726,22.63-14.366,26.446-24.374C286.147,65.753,285.989,55.121,285.328,48.921z"/>
		<path id="XMLID_205_" fill="#E32833" d="M261.903,11.271c-9.625-6.047-21.424-10.065-34.238-11.04
			c-12.94-0.978-26.642,1.086-40.078,7.201c-15.149,6.978-29.816,19.351-42.089,38.595c3.129-0.05,5.537,0.215,5.537,0.215
			c-5.227,0.849-7.988,4.001-9.169,5.799c-0.24,0.42-0.475,0.853-0.713,1.279c4.164-0.551,7.41,0.505,7.41,0.505
			c-6.357,1.308-10.521,6.273-12.972,10.444c-0.835,1.812-1.649,3.677-2.448,5.578c2.738-3.219,15.454-4.182,15.454-4.182
			c-15.846,4.804-18.638,12.249-18.638,12.249s36.357-19.669,65.945,11.663c0,0,15.26,17.372,20.36,27.745l-6.398-36.075
			l-0.848-4.964l-1.258-5.752c-2.335-9.739-4.033-20.491-4.056-28.083c-0.044-14.937,7.105-23.056,16.32-26.627
			c7.55-2.805,16.647-2.325,24.213,0.312c7.821,2.89,14.243,8.06,16.184,14.51c1.058,3.469,0.843,7.202-0.977,10.996
			c7.316-1.454,15.493-2.134,24.451-1.928C281.716,28.698,273.584,18.54,261.903,11.271z"/>
	</g>
	<text id="XMLID_203_" transform="matrix(1.0204 0 0 1 232.9541 293.7993)"><tspan x="0" y="0" fill="#FFFFFF" font-family="'PRIMETIME-Regular'" font-size="139.2481">x</tspan><tspan x="100.119" y="0" fill="#FFFFFF" font-family="'PRIMETIME-Regular'" font-size="109.2341">plora</tspan></text>
</g>
</svg>
